<svg width="189" height="117" viewBox="0 0 189 117" fill="none" xmlns="http://www.w3.org/2000/svg">
<line x1="14.4991" y1="35.9694" x2="17.4991" y2="84.9694" stroke="white"/>
<line x1="25.9617" y1="20.5015" x2="103.962" y2="14.5015" stroke="white"/>
<line x1="109.354" y1="24.3536" x2="74.3536" y2="59.3536" stroke="white"/>
<line x1="56.237" y1="77.4402" x2="30.237" y2="91.4402" stroke="white"/>
<line x1="114.767" y1="97.4422" x2="78.7666" y2="78.4422" stroke="white"/>
<line x1="134.618" y1="95.677" x2="167.618" y2="56.677" stroke="white"/>
<line x1="164.762" y1="39.4399" x2="127.762" y2="19.4399" stroke="white"/>
<circle cx="13.5" cy="22.5" r="13.5" fill="#0C8CE9"/>
<circle cx="125.5" cy="103.5" r="13.5" fill="#0C8CE9"/>
<circle cx="175.5" cy="47.5" r="13.5" fill="#0C8CE9"/>
<circle cx="116.5" cy="13.5" r="13.5" fill="#0C8CE9"/>
<circle cx="67.5" cy="70.5" r="13.5" fill="#0C8CE9"/>
<circle cx="18.5" cy="97.5" r="13.5" fill="#0C8CE9"/>
<path d="M31.5156 48.0117H37.9004C40.334 48.0117 42.1797 48.5358 43.4375 49.584C44.6953 50.6322 45.3242 52.2135 45.3242 54.3281C45.3242 56.4336 44.6497 58.056 43.3008 59.1953C41.9518 60.3255 40.0423 60.8906 37.5723 60.8906H35.7539V68H31.5156V48.0117ZM35.7539 51.4844V57.418H37.1484C39.7461 57.418 41.0449 56.4154 41.0449 54.4102C41.0449 53.4076 40.7715 52.6693 40.2246 52.1953C39.6868 51.7214 38.8392 51.4844 37.6816 51.4844H35.7539ZM52.9395 68H48.7695V46.7266H52.9395V68ZM57.7383 53.7812C59.5065 52.8607 61.4434 52.4004 63.5488 52.4004C65.6543 52.4004 67.2448 52.8516 68.3203 53.7539C69.4049 54.6562 69.9473 56.0098 69.9473 57.8145V68H67.0352L66.2285 65.9219H66.1191C65.4173 66.8151 64.6973 67.4303 63.959 67.7676C63.2207 68.1048 62.25 68.2734 61.0469 68.2734C59.5885 68.2734 58.431 67.8542 57.5742 67.0156C56.7357 66.1771 56.3164 64.9694 56.3164 63.3926C56.3164 61.8158 56.877 60.64 57.998 59.8652C59.1191 59.0814 60.8372 58.6484 63.1523 58.5664L65.8047 58.4844V57.8145C65.8047 56.265 65.0117 55.4902 63.4258 55.4902C62.2044 55.4902 60.7689 55.8594 59.1191 56.5977L57.7383 53.7812ZM60.5957 63.4609C60.5957 64.6367 61.2702 65.2246 62.6191 65.2246C63.5944 65.2246 64.3691 64.9466 64.9434 64.3906C65.5176 63.8346 65.8047 63.0964 65.8047 62.1758V60.918L64.1914 60.9727C62.9792 61.0091 62.0768 61.2279 61.4844 61.6289C60.8919 62.0299 60.5957 62.6406 60.5957 63.4609ZM82.9355 52.4277C84.7038 52.4277 86.0482 52.9108 86.9688 53.877C87.8984 54.834 88.3633 56.2194 88.3633 58.0332V68H84.1934V59.0723C84.1934 57.9603 83.9928 57.1309 83.5918 56.584C83.1999 56.0371 82.5801 55.7637 81.7324 55.7637C80.5658 55.7637 79.7227 56.1556 79.2031 56.9395C78.6836 57.7233 78.4238 59.013 78.4238 60.8086V68H74.2539V52.7148H77.4395L78 54.6836H78.2324C78.6882 53.9453 79.3216 53.3848 80.1328 53.002C80.9531 52.6191 81.8874 52.4277 82.9355 52.4277ZM93.0664 53.7812C94.8346 52.8607 96.7715 52.4004 98.877 52.4004C100.982 52.4004 102.573 52.8516 103.648 53.7539C104.733 54.6562 105.275 56.0098 105.275 57.8145V68H102.363L101.557 65.9219H101.447C100.745 66.8151 100.025 67.4303 99.2871 67.7676C98.5488 68.1048 97.5781 68.2734 96.375 68.2734C94.9167 68.2734 93.7591 67.8542 92.9023 67.0156C92.0638 66.1771 91.6445 64.9694 91.6445 63.3926C91.6445 61.8158 92.2051 60.64 93.3262 59.8652C94.4473 59.0814 96.1654 58.6484 98.4805 58.5664L101.133 58.4844V57.8145C101.133 56.265 100.34 55.4902 98.7539 55.4902C97.5326 55.4902 96.097 55.8594 94.4473 56.5977L93.0664 53.7812ZM95.9238 63.4609C95.9238 64.6367 96.5983 65.2246 97.9473 65.2246C98.9225 65.2246 99.6973 64.9466 100.271 64.3906C100.846 63.8346 101.133 63.0964 101.133 62.1758V60.918L99.5195 60.9727C98.3073 61.0091 97.4049 61.2279 96.8125 61.6289C96.2201 62.0299 95.9238 62.6406 95.9238 63.4609ZM118.113 52.4277C118.688 52.4277 119.157 52.4688 119.521 52.5508L119.207 56.4609C118.879 56.3698 118.469 56.3242 117.977 56.3242C116.646 56.3242 115.607 56.666 114.859 57.3496C114.121 58.0332 113.752 58.9902 113.752 60.2207V68H109.582V52.7148H112.74L113.355 55.2852H113.561C114.053 54.4102 114.691 53.722 115.475 53.2207C116.277 52.6921 117.156 52.4277 118.113 52.4277Z" fill="white"/>
<path d="M134.137 51.4844H126.863V55.873H133.617V59.3457H126.863V64.5H134.137V68H122.625V48.0117H134.137V51.4844ZM151.35 68H148.15L147.344 66.0176H147.166C146.227 67.5215 144.783 68.2734 142.832 68.2734C141.027 68.2734 139.615 67.5807 138.594 66.1953C137.573 64.8008 137.062 62.8594 137.062 60.3711C137.062 57.8737 137.582 55.9277 138.621 54.5332C139.669 53.1296 141.132 52.4277 143.01 52.4277C144.887 52.4277 146.332 53.1797 147.344 54.6836H147.48C147.271 53.5078 147.166 52.487 147.166 51.6211V46.7266H151.35V68ZM147.453 60.4121C147.453 58.7806 147.198 57.6094 146.688 56.8984C146.177 56.1784 145.357 55.8184 144.227 55.8184C143.288 55.8184 142.563 56.2148 142.053 57.0078C141.542 57.8008 141.287 58.9447 141.287 60.4395C141.287 61.9251 141.542 63.0508 142.053 63.8164C142.572 64.5729 143.342 64.9512 144.363 64.9512C145.384 64.9512 146.145 64.6458 146.646 64.0352C147.148 63.4154 147.417 62.3581 147.453 60.8633V60.4121Z" fill="#0C8CE9"/>
</svg>
