<svg width="209" height="131" viewBox="0 0 209 131" fill="none" xmlns="http://www.w3.org/2000/svg">
<rect width="209" height="131" fill="white"/>
<line x1="24.4991" y1="42.9694" x2="27.4991" y2="91.9694" stroke="black"/>
<line x1="35.9617" y1="27.5015" x2="113.962" y2="21.5015" stroke="black"/>
<line x1="119.354" y1="31.3536" x2="84.3536" y2="66.3536" stroke="black"/>
<line x1="66.237" y1="84.4402" x2="40.237" y2="98.4402" stroke="black"/>
<line x1="124.767" y1="104.442" x2="88.7666" y2="85.4422" stroke="black"/>
<line x1="144.618" y1="102.677" x2="177.618" y2="63.677" stroke="black"/>
<line x1="174.762" y1="46.4399" x2="137.762" y2="26.4399" stroke="black"/>
<circle cx="23.5" cy="29.5" r="13.5" fill="#0C8CE9"/>
<circle cx="135.5" cy="110.5" r="13.5" fill="#0C8CE9"/>
<circle cx="185.5" cy="54.5" r="13.5" fill="#0C8CE9"/>
<circle cx="126.5" cy="20.5" r="13.5" fill="#0C8CE9"/>
<circle cx="77.5" cy="77.5" r="13.5" fill="#0C8CE9"/>
<circle cx="28.5" cy="104.5" r="13.5" fill="#0C8CE9"/>
<path d="M41.5156 55.0117H47.9004C50.334 55.0117 52.1797 55.5358 53.4375 56.584C54.6953 57.6322 55.3242 59.2135 55.3242 61.3281C55.3242 63.4336 54.6497 65.056 53.3008 66.1953C51.9518 67.3255 50.0423 67.8906 47.5723 67.8906H45.7539V75H41.5156V55.0117ZM45.7539 58.4844V64.418H47.1484C49.7461 64.418 51.0449 63.4154 51.0449 61.4102C51.0449 60.4076 50.7715 59.6693 50.2246 59.1953C49.6868 58.7214 48.8392 58.4844 47.6816 58.4844H45.7539ZM62.9395 75H58.7695V53.7266H62.9395V75ZM67.7383 60.7812C69.5065 59.8607 71.4434 59.4004 73.5488 59.4004C75.6543 59.4004 77.2448 59.8516 78.3203 60.7539C79.4049 61.6562 79.9473 63.0098 79.9473 64.8145V75H77.0352L76.2285 72.9219H76.1191C75.4173 73.8151 74.6973 74.4303 73.959 74.7676C73.2207 75.1048 72.25 75.2734 71.0469 75.2734C69.5885 75.2734 68.431 74.8542 67.5742 74.0156C66.7357 73.1771 66.3164 71.9694 66.3164 70.3926C66.3164 68.8158 66.877 67.64 67.998 66.8652C69.1191 66.0814 70.8372 65.6484 73.1523 65.5664L75.8047 65.4844V64.8145C75.8047 63.265 75.0117 62.4902 73.4258 62.4902C72.2044 62.4902 70.7689 62.8594 69.1191 63.5977L67.7383 60.7812ZM70.5957 70.4609C70.5957 71.6367 71.2702 72.2246 72.6191 72.2246C73.5944 72.2246 74.3691 71.9466 74.9434 71.3906C75.5176 70.8346 75.8047 70.0964 75.8047 69.1758V67.918L74.1914 67.9727C72.9792 68.0091 72.0768 68.2279 71.4844 68.6289C70.8919 69.0299 70.5957 69.6406 70.5957 70.4609ZM92.9355 59.4277C94.7038 59.4277 96.0482 59.9108 96.9688 60.877C97.8984 61.834 98.3633 63.2194 98.3633 65.0332V75H94.1934V66.0723C94.1934 64.9603 93.9928 64.1309 93.5918 63.584C93.1999 63.0371 92.5801 62.7637 91.7324 62.7637C90.5658 62.7637 89.7227 63.1556 89.2031 63.9395C88.6836 64.7233 88.4238 66.013 88.4238 67.8086V75H84.2539V59.7148H87.4395L88 61.6836H88.2324C88.6882 60.9453 89.3216 60.3848 90.1328 60.002C90.9531 59.6191 91.8874 59.4277 92.9355 59.4277ZM103.066 60.7812C104.835 59.8607 106.771 59.4004 108.877 59.4004C110.982 59.4004 112.573 59.8516 113.648 60.7539C114.733 61.6562 115.275 63.0098 115.275 64.8145V75H112.363L111.557 72.9219H111.447C110.745 73.8151 110.025 74.4303 109.287 74.7676C108.549 75.1048 107.578 75.2734 106.375 75.2734C104.917 75.2734 103.759 74.8542 102.902 74.0156C102.064 73.1771 101.645 71.9694 101.645 70.3926C101.645 68.8158 102.205 67.64 103.326 66.8652C104.447 66.0814 106.165 65.6484 108.48 65.5664L111.133 65.4844V64.8145C111.133 63.265 110.34 62.4902 108.754 62.4902C107.533 62.4902 106.097 62.8594 104.447 63.5977L103.066 60.7812ZM105.924 70.4609C105.924 71.6367 106.598 72.2246 107.947 72.2246C108.923 72.2246 109.697 71.9466 110.271 71.3906C110.846 70.8346 111.133 70.0964 111.133 69.1758V67.918L109.52 67.9727C108.307 68.0091 107.405 68.2279 106.812 68.6289C106.22 69.0299 105.924 69.6406 105.924 70.4609ZM128.113 59.4277C128.688 59.4277 129.157 59.4688 129.521 59.5508L129.207 63.4609C128.879 63.3698 128.469 63.3242 127.977 63.3242C126.646 63.3242 125.607 63.666 124.859 64.3496C124.121 65.0332 123.752 65.9902 123.752 67.2207V75H119.582V59.7148H122.74L123.355 62.2852H123.561C124.053 61.4102 124.691 60.722 125.475 60.2207C126.277 59.6921 127.156 59.4277 128.113 59.4277Z" fill="black"/>
<path d="M144.137 58.4844H136.863V62.873H143.617V66.3457H136.863V71.5H144.137V75H132.625V55.0117H144.137V58.4844ZM161.35 75H158.15L157.344 73.0176H157.166C156.227 74.5215 154.783 75.2734 152.832 75.2734C151.027 75.2734 149.615 74.5807 148.594 73.1953C147.573 71.8008 147.062 69.8594 147.062 67.3711C147.062 64.8737 147.582 62.9277 148.621 61.5332C149.669 60.1296 151.132 59.4277 153.01 59.4277C154.887 59.4277 156.332 60.1797 157.344 61.6836H157.48C157.271 60.5078 157.166 59.487 157.166 58.6211V53.7266H161.35V75ZM157.453 67.4121C157.453 65.7806 157.198 64.6094 156.688 63.8984C156.177 63.1784 155.357 62.8184 154.227 62.8184C153.288 62.8184 152.563 63.2148 152.053 64.0078C151.542 64.8008 151.287 65.9447 151.287 67.4395C151.287 68.9251 151.542 70.0508 152.053 70.8164C152.572 71.5729 153.342 71.9512 154.363 71.9512C155.384 71.9512 156.145 71.6458 156.646 71.0352C157.148 70.4154 157.417 69.3581 157.453 67.8633V67.4121Z" fill="#0C8CE9"/>
</svg>
